<?xml version="1.0" encoding="utf-8"?>
<!-- Generator: Adobe Illustrator 27.2.0, SVG Export Plug-In . SVG Version: 6.00 Build 0)  -->
<svg version="1.1" id="Layer_1" xmlns="http://www.w3.org/2000/svg" xmlns:xlink="http://www.w3.org/1999/xlink" x="0px" y="0px"
	 viewBox="0 0 42 42" style="enable-background:new 0 0 42 42;" xml:space="preserve">
<style type="text/css">
	.st0{fill:#03A9F4;}
	.st1{fill:#FFFFFF;}
	.st2{display:none;fill:#536DFE;}
</style>
<path class="st0" d="M33.5,42H8.5C3.8,42,0,38.2,0,33.5V8.5C0,3.8,3.8,0,8.5,0h25.1C38.2,0,42,3.8,42,8.5v25.1
	C42,38.2,38.2,42,33.5,42z"/>
<path class="st1" d="M33.9,13.1c-0.9,0.4-2,0.7-3,0.8c1.1-0.6,1.9-1.7,2.3-2.9c-1,0.6-2.2,1-3.4,1.3c-1-1-2.3-1.7-3.9-1.7
	c-2.9,0-5.3,2.3-5.3,5.2c0,0.4,0,0.8,0.1,1.2c-4.4-0.2-8.3-2.3-10.9-5.5c-0.5,0.8-0.7,1.7-0.7,2.6c0,1.8,0.9,3.4,2.4,4.4
	c-0.9,0-1.7-0.3-2.4-0.7c0,0,0,0,0,0.1c0,2.5,1.8,4.7,4.2,5.1c-0.4,0.1-0.9,0.2-1.4,0.2c-0.3,0-0.7,0-1-0.1c0.7,2.1,2.6,3.6,4.9,3.6
	c-1.8,1.4-4.1,2.2-6.6,2.2c-0.4,0-0.8,0-1.3-0.1c2.3,1.5,5.1,2.4,8.1,2.4c9.7,0,15.1-8,15.1-14.9c0-0.2,0-0.5,0-0.7
	C32.3,15,33.2,14.1,33.9,13.1"/>
<path class="st2" d="M30.1,13.5c-1.6-0.8-3.4-1.3-5.3-1.6c0,0-0.1,0-0.1,0c-0.2,0.4-0.5,0.9-0.7,1.3c-2-0.3-4-0.3-5.9,0
	c-0.2-0.4-0.4-0.9-0.7-1.3c0,0-0.1,0-0.1,0c-1.8,0.3-3.6,0.9-5.3,1.6c0,0,0,0,0,0c-3.3,5-4.3,9.9-3.8,14.7c0,0,0,0,0,0.1
	c2.2,1.6,4.3,2.6,6.4,3.3c0,0,0.1,0,0.1,0c0.5-0.7,0.9-1.4,1.3-2.1c0,0,0-0.1,0-0.1c-0.7-0.3-1.4-0.6-2-1c-0.1,0-0.1-0.1,0-0.1
	c0.1-0.1,0.3-0.2,0.4-0.3c0,0,0.1,0,0.1,0c4.2,1.9,8.8,1.9,13,0c0,0,0.1,0,0.1,0c0.1,0.1,0.3,0.2,0.4,0.3c0,0,0,0.1,0,0.1
	c-0.6,0.4-1.3,0.7-2,1c0,0-0.1,0.1,0,0.1c0.4,0.8,0.8,1.5,1.3,2.1c0,0,0.1,0,0.1,0c2.1-0.7,4.2-1.6,6.5-3.3c0,0,0,0,0-0.1
	C34.5,22.7,33.1,17.8,30.1,13.5C30.1,13.5,30.1,13.5,30.1,13.5z M16.9,25.3c-1.3,0-2.3-1.2-2.3-2.6c0-1.4,1-2.6,2.3-2.6
	c1.3,0,2.3,1.2,2.3,2.6C19.2,24.1,18.2,25.3,16.9,25.3z M25.5,25.3c-1.3,0-2.3-1.2-2.3-2.6c0-1.4,1-2.6,2.3-2.6
	c1.3,0,2.3,1.2,2.3,2.6C27.8,24.1,26.8,25.3,25.5,25.3z"/>
</svg>
