<?xml version="1.0" encoding="utf-8"?>
<!-- Generator: Adobe Illustrator 27.2.0, SVG Export Plug-In . SVG Version: 6.00 Build 0)  -->
<svg version="1.1" id="Layer_1" xmlns="http://www.w3.org/2000/svg" xmlns:xlink="http://www.w3.org/1999/xlink" x="0px" y="0px"
	 viewBox="0 0 42 42" style="enable-background:new 0 0 42 42;" xml:space="preserve">
<style type="text/css">
	.st0{display:none;fill:#FFFFFF;}
	.st1{display:none;fill:#2AABEE;}
	.st2{fill:#FF7F00;}
	.st3{fill:none;stroke:#FFFFFF;stroke-miterlimit:10;}
	.st4{fill:none;}
	.st5{fill:#FFFFFF;}
</style>
<path class="st0" d="M33.9,13.1c-0.9,0.4-2,0.7-3,0.8c1.1-0.6,1.9-1.7,2.3-2.9c-1,0.6-2.2,1-3.4,1.3c-1-1-2.3-1.7-3.9-1.7
	c-2.9,0-5.3,2.3-5.3,5.2c0,0.4,0,0.8,0.1,1.2c-4.4-0.2-8.3-2.3-10.9-5.5c-0.5,0.8-0.7,1.7-0.7,2.6c0,1.8,0.9,3.4,2.4,4.4
	c-0.9,0-1.7-0.3-2.4-0.7c0,0,0,0,0,0.1c0,2.5,1.8,4.7,4.2,5.1c-0.4,0.1-0.9,0.2-1.4,0.2c-0.3,0-0.7,0-1-0.1c0.7,2.1,2.6,3.6,4.9,3.6
	c-1.8,1.4-4.1,2.2-6.6,2.2c-0.4,0-0.8,0-1.3-0.1c2.3,1.5,5.1,2.4,8.1,2.4c9.7,0,15.1-8,15.1-14.9c0-0.2,0-0.5,0-0.7
	C32.3,15,33.2,14.1,33.9,13.1"/>
<path class="st0" d="M31.2,11.7c-1.9-0.9-3.9-1.5-6-1.9h-0.1c-0.3,0.5-0.5,1.1-0.7,1.5c-2.3-0.3-4.5-0.3-6.7,0
	c-0.2-0.5-0.5-1.1-0.8-1.5c0,0-0.1-0.1-0.1,0c-2.1,0.4-4.1,1-6,1.9l0,0C7,17.4,5.9,22.9,6.4,28.4v0.1c2.5,1.8,4.9,3,7.3,3.7h0.1
	c0.6-0.8,1.1-1.6,1.5-2.4c0-0.1,0-0.1-0.1-0.1c-0.8-0.3-1.6-0.7-2.3-1.1c-0.1,0-0.1-0.1,0-0.2c0.2-0.1,0.3-0.2,0.5-0.4h0.1
	c4.8,2.2,10,2.2,14.7,0h0.1c0.1,0.1,0.3,0.2,0.5,0.4c0.1,0,0.1,0.1,0,0.2c-0.7,0.4-1.5,0.8-2.3,1.1c-0.1,0-0.1,0.1-0.1,0.1
	c0.4,0.9,0.9,1.7,1.5,2.4H28c2.4-0.7,4.8-1.9,7.3-3.7c0,0,0,0,0-0.1C36.2,22.1,34.5,16.6,31.2,11.7L31.2,11.7z M16.1,25.1
	c-1.4,0-2.6-1.3-2.6-3c0-1.6,1.2-3,2.6-3c1.5,0,2.7,1.3,2.6,3C18.8,23.7,17.6,25.1,16.1,25.1z M25.9,25.1c-1.4,0-2.6-1.3-2.6-3
	c0-1.6,1.2-3,2.6-3c1.5,0,2.7,1.3,2.6,3C28.5,23.7,27.4,25.1,25.9,25.1z"/>
<path class="st0" d="M23.8,38.8h-5.5c-8.3,0-15-6.7-15-15v-5.5c0-8.3,6.7-15,15-15h5.5c8.3,0,15,6.7,15,15v5.5
	C38.8,32.1,32.1,38.8,23.8,38.8z"/>
<path class="st1" d="M21,0.7c11.2,0,20.3,9.1,20.3,20.3S32.2,41.3,21,41.3S0.7,32.2,0.7,21S9.8,0.7,21,0.7z M28,29.3
	c0.4-1.1,2.1-12.5,2.3-14.8c0.1-0.7-0.1-1.1-0.6-1.3s-1.3-0.1-2.1,0.2c-1.2,0.4-16.6,7-17.4,7.3C9.3,21,8.5,21.4,8.5,22
	c0,0.4,0.2,0.6,0.9,0.9c0.7,0.2,2.4,0.8,3.4,1c1,0.3,2.1,0,2.7-0.3c0.7-0.4,8.2-5.5,8.7-5.9s1,0.1,0.5,0.6c-0.4,0.4-5.6,5.5-6.3,6.2
	c-0.8,0.8-0.2,1.7,0.3,2.1c0.6,0.4,5.2,3.5,5.9,4c0.7,0.5,1.4,0.7,2,0.7S27.7,30.2,28,29.3z"/>
<path class="st0" d="M32.3,27.3h-2.7c0.1-0.6,0.2-1.1,0.2-1.7v-1.3c-0.2-3.8-3-6.3-7.1-6.3h-4.6c-0.8,0-1.4-0.7-1.4-1.6
	s0.6-1.6,1.5-1.6h11.5c1.1,0,2-0.9,2-2v-3c0-0.2-0.1-0.3-0.3-0.3l0,0h-13c-4,0-6.8,2.5-7.1,6.3v1c0,0.4,0.1,0.7,0.1,1.1H8.3
	c0.7,3.2,3.3,5.2,6.9,5.2h7.1c1,0,2.1,0.4,2.1,1.9c0.1,1.2-0.9,2.2-2,2.2l0,0h-8.8c-1.1,0-2,0.9-2,2v2.9c0,0.2,0.1,0.3,0.3,0.3h13.5
	c3.8,0,6.7-2,7.4-5.2"/>
<path class="st2" d="M33.5,42h-25C3.8,42,0,38.2,0,33.5v-25C0,3.8,3.8,0,8.5,0h25.1C38.2,0,42,3.8,42,8.5v25.1
	C42,38.2,38.2,42,33.5,42z"/>
<path class="st3" d="M20.9,9.8"/>
<path class="st3" d="M16.4,20.7"/>
<g>
	<rect x="6.2" y="6.4" class="st4" width="29.3" height="29.3"/>
</g>
<path class="st0" d="M28.2,19.9c0,0.8,0,1.6,0,2.4c1.5,0,3.4,0,4.9,0c0-0.8,0-1.6,0-2.4C31.6,19.9,29.7,19.9,28.2,19.9z"/>
<path class="st0" d="M25.7,27.9c1.2,0.9,2.7,2,3.9,2.9c0.5-0.6,1-1.3,1.5-2c-1.2-0.9-2.7-2.1-3.9-2.9C26.7,26.6,26.2,27.3,25.7,27.9
	z"/>
<path class="st0" d="M31.1,13.3c-0.5-0.6-1-1.3-1.5-2c-1.2,0.9-2.7,2.1-3.9,2.9c0.5,0.6,1,1.3,1.5,2C28.4,15.3,29.9,14.2,31.1,13.3z
	"/>
<path class="st0" d="M11.1,17.4c-1.3,0-2.4,1.1-2.4,2.4v2.4c0,1.3,1.1,2.4,2.4,2.4h1.2v4.9h2.4v-4.9H16l6.1,3.7V13.8L16,17.4H11.1z
	 M17.2,19.5l2.4-1.4v6l-2.4-1.4l-0.6-0.4H16h-4.9v-2.4H16h0.7L17.2,19.5z"/>
<path class="st0" d="M25.1,21.1c0-1.6-0.7-3.1-1.8-4.1v8.2C24.4,24.2,25.1,22.7,25.1,21.1z"/>
<g>
	<path class="st4" d="M5.7,5.4h30.6V36H5.7V5.4z"/>
</g>
<path class="st4" d="M2.9,2.6H39v36.1H2.9V2.6z"/>
<g>
	<rect x="3.9" y="3" class="st4" width="34.5" height="34.5"/>
</g>
<g>
	<path class="st4" d="M4.1,4.3h33.5v33.5H4.1V4.3z"/>
</g>
<path class="st4" d="M5.2,4.3h31.9v31.9H5.2V4.3z"/>
<path class="st4" d="M3.8,4H38v34.2H3.8V4z"/>
<path class="st4" d="M2.8,3h36v36h-36C2.8,39,2.8,3,2.8,3z"/>
<path class="st4" d="M3.2,3.2h35.7v35.7H3.2V3.2z"/>
<path class="st4" d="M4.1,3.8h33.7v33.7H4.1V3.8z"/>
<path class="st4" d="M4.6,4.8h32.5v32.5H4.6V4.8z"/>
<path class="st4" d="M4.3,4.3h33.4v33.4H4.3V4.3z"/>
<path class="st4" d="M5.7,5.6h30.9v30.9H5.7V5.6z"/>
<path class="st5" d="M16,26.2h10.3v2.6H16V26.2z M16,21.1h10.3v2.6H16V21.1z M23.7,8.2H13.4c-1.4,0-2.6,1.2-2.6,2.6v20.6
	c0,1.4,1.1,2.6,2.6,2.6h15.5c1.4,0,2.6-1.2,2.6-2.6V15.9L23.7,8.2z M28.9,31.4H13.4V10.8h9v6.4h6.4V31.4z"/>
</svg>
