<?xml version="1.0" encoding="utf-8"?>
<!-- Generator: Adobe Illustrator 27.2.0, SVG Export Plug-In . SVG Version: 6.00 Build 0)  -->
<svg version="1.1" id="Layer_1" xmlns="http://www.w3.org/2000/svg" xmlns:xlink="http://www.w3.org/1999/xlink" x="0px" y="0px"
	 viewBox="0 0 42 42" style="enable-background:new 0 0 42 42;" xml:space="preserve">
<style type="text/css">
	.st0{fill:#536DFE;}
	.st1{display:none;fill:#FFFFFF;}
	.st2{fill:#FFFFFF;}
</style>
<path class="st0" d="M33.5,42H8.5C3.8,42,0,38.2,0,33.5V8.5C0,3.8,3.8,0,8.5,0h25.1C38.2,0,42,3.8,42,8.5v25.1
	C42,38.2,38.2,42,33.5,42z"/>
<path class="st1" d="M33.9,13.1c-0.9,0.4-2,0.7-3,0.8c1.1-0.6,1.9-1.7,2.3-2.9c-1,0.6-2.2,1-3.4,1.3c-1-1-2.3-1.7-3.9-1.7
	c-2.9,0-5.3,2.3-5.3,5.2c0,0.4,0,0.8,0.1,1.2c-4.4-0.2-8.3-2.3-10.9-5.5c-0.5,0.8-0.7,1.7-0.7,2.6c0,1.8,0.9,3.4,2.4,4.4
	c-0.9,0-1.7-0.3-2.4-0.7c0,0,0,0,0,0.1c0,2.5,1.8,4.7,4.2,5.1c-0.4,0.1-0.9,0.2-1.4,0.2c-0.3,0-0.7,0-1-0.1c0.7,2.1,2.6,3.6,4.9,3.6
	c-1.8,1.4-4.1,2.2-6.6,2.2c-0.4,0-0.8,0-1.3-0.1c2.3,1.5,5.1,2.4,8.1,2.4c9.7,0,15.1-8,15.1-14.9c0-0.2,0-0.5,0-0.7
	C32.3,15,33.2,14.1,33.9,13.1"/>
<path class="st2" d="M31.2,11.7c-1.9-0.9-3.9-1.5-6-1.9c0,0-0.1,0-0.1,0c-0.3,0.5-0.5,1.1-0.7,1.5c-2.3-0.3-4.5-0.3-6.7,0
	c-0.2-0.5-0.5-1.1-0.8-1.5c0,0-0.1-0.1-0.1,0c-2.1,0.4-4.1,1-6,1.9c0,0,0,0,0,0C7,17.4,5.9,22.9,6.4,28.4c0,0,0,0.1,0,0.1
	c2.5,1.8,4.9,3,7.3,3.7c0,0,0.1,0,0.1,0c0.6-0.8,1.1-1.6,1.5-2.4c0-0.1,0-0.1-0.1-0.1c-0.8-0.3-1.6-0.7-2.3-1.1
	c-0.1,0-0.1-0.1,0-0.2c0.2-0.1,0.3-0.2,0.5-0.4c0,0,0.1,0,0.1,0c4.8,2.2,10,2.2,14.7,0c0,0,0.1,0,0.1,0c0.1,0.1,0.3,0.2,0.5,0.4
	c0.1,0,0.1,0.1,0,0.2c-0.7,0.4-1.5,0.8-2.3,1.1c-0.1,0-0.1,0.1-0.1,0.1c0.4,0.9,0.9,1.7,1.5,2.4c0,0,0.1,0,0.1,0
	c2.4-0.7,4.8-1.9,7.3-3.7c0,0,0,0,0-0.1C36.2,22.1,34.5,16.6,31.2,11.7C31.2,11.7,31.2,11.7,31.2,11.7z M16.1,25.1
	c-1.4,0-2.6-1.3-2.6-3c0-1.6,1.2-3,2.6-3c1.5,0,2.7,1.3,2.6,3C18.8,23.7,17.6,25.1,16.1,25.1z M25.9,25.1c-1.4,0-2.6-1.3-2.6-3
	c0-1.6,1.2-3,2.6-3c1.5,0,2.7,1.3,2.6,3C28.5,23.7,27.4,25.1,25.9,25.1z"/>
</svg>
