<?xml version="1.0" standalone="no"?>
<!DOCTYPE svg PUBLIC "-//W3C//DTD SVG 20010904//EN"
 "http://www.w3.org/TR/2001/REC-SVG-20010904/DTD/svg10.dtd">
<svg version="1.0" xmlns="http://www.w3.org/2000/svg"
 width="400.000000pt" height="400.000000pt" viewBox="0 0 400.000000 400.000000"
 preserveAspectRatio="xMidYMid meet">
<metadata>
Created by potrace 1.14, written by Peter Selinger 2001-2017
</metadata>
<g transform="translate(0.000000,400.000000) scale(0.100000,-0.100000)"
fill="#000000" stroke="none">
<path d="M423 2821 c-106 -36 -186 -116 -218 -217 -14 -44 -15 -121 -13 -620
l3 -569 24 -49 c34 -68 91 -122 169 -159 59 -28 79 -32 167 -35 81 -3 112 0
157 16 110 39 187 113 224 214 9 24 18 92 21 153 4 81 9 113 20 122 17 13 20
10 272 -269 130 -145 148 -160 218 -195 72 -35 84 -38 184 -41 157 -6 245 24
328 111 l34 36 44 -44 c24 -24 69 -56 101 -72 53 -26 65 -28 182 -28 118 0
128 2 185 29 79 39 147 110 176 183 18 47 23 84 27 196 l4 137 153 0 152 0 5
-137 c4 -110 10 -150 27 -196 29 -73 101 -149 178 -185 53 -25 68 -27 178 -27
114 0 123 2 185 31 76 36 131 89 168 159 l27 50 0 590 0 590 -28 53 c-36 68
-94 124 -165 159 -53 26 -66 28 -182 28 -115 0 -130 -2 -183 -27 -32 -15 -79
-49 -106 -77 -68 -70 -92 -136 -98 -273 l-6 -108 -153 0 -154 0 0 83 c-1 194
-67 311 -216 379 -43 20 -65 23 -174 23 -118 0 -128 -2 -184 -29 -73 -36 -127
-89 -164 -162 l-28 -56 -12 41 c-19 60 -99 142 -174 177 -59 27 -71 29 -188
29 -121 0 -127 -1 -185 -32 -33 -17 -145 -95 -250 -172 l-190 -142 -8 33 c-24
99 -41 140 -71 180 -40 53 -116 104 -182 124 -67 20 -217 18 -281 -5z m265
-172 c26 -13 54 -38 70 -62 26 -40 27 -44 32 -238 l5 -197 326 241 c179 133
343 250 363 260 50 24 167 23 221 -2 92 -41 122 -127 70 -203 -17 -25 -93 -82
-236 -178 l-210 -141 259 -263 c174 -177 265 -277 280 -307 30 -62 29 -110 -5
-150 -42 -49 -95 -69 -189 -69 -111 0 -159 25 -255 133 -95 106 -277 306 -347
380 l-55 59 -113 -76 -112 -76 -4 -143 c-4 -165 -16 -202 -81 -245 -34 -23
-54 -28 -121 -30 -73 -3 -86 -1 -135 25 -97 51 -92 14 -89 648 l3 550 22 31
c36 50 95 74 182 74 56 0 86 -5 119 -21z m1272 -574 l0 -345 -177 181 c-98
100 -179 184 -181 188 -1 4 57 47 128 95 126 85 199 154 215 206 4 11 8 20 11
20 2 0 4 -155 4 -345z"/>
</g>
</svg>
