<?xml version="1.0" encoding="utf-8"?>
<!-- Generator: Adobe Illustrator 27.2.0, SVG Export Plug-In . SVG Version: 6.00 Build 0)  -->
<svg version="1.1" id="Layer_1" xmlns="http://www.w3.org/2000/svg" xmlns:xlink="http://www.w3.org/1999/xlink" x="0px" y="0px"
	 viewBox="0 0 1804.92 189.24" style="enable-background:new 0 0 1804.92 189.24;" xml:space="preserve">
<style type="text/css">
	.st0{fill:#FFFFFF;}
	.st1{fill:#EC008C;}
</style>
<g>
	<g>
		<g>
			<g>
				<path d="M168.84,189.24c-9.03,0-16.99-1.63-23.67-4.86c-6.37-3.08-11.88-7.28-16.38-12.51c-2.3-2.67-4.4-5.15-6.25-7.4
					L91.04,130l-4.15,2.83v15.55c0,13.25-5.35,24.57-15.06,31.89c-7.9,5.96-17.52,8.98-28.58,8.98c-6.41,0-12.67-1.22-18.6-3.63
					c-6.96-2.83-12.65-7.02-16.92-12.45l-0.39-0.49l-0.36-0.51C3.44,167.1,1.27,161.33,0.55,155C0.17,151.73,0,147.7,0,142.32V40.77
					C0,27.98,5,16.89,14.06,9.54C21.88,3.21,31.7,0,43.25,0c11.2,0,20.88,3.05,28.76,9.06c9.6,7.33,14.88,18.59,14.88,31.71v0.2
					l38.05-28.23c4.78-3.56,8.99-6.25,12.82-8.19C143.8,1.49,150.71,0,158.89,0c10.43,0,19.51,2.56,26.98,7.6
					c10.01,6.76,15.74,17.12,15.74,28.42c0,8.56-3.35,21.04-19.28,31.87L158.9,83.68l34.21,34.87c4.97,4.99,8.75,9.47,11.56,13.69
					c4.58,6.89,6.9,14.2,6.9,21.72c0,11.07-5.74,21.24-15.75,27.9C188.46,186.76,179.38,189.24,168.84,189.24z"/>
			</g>
			<g>
				<path d="M306.21,189.24c-16.36,0-30.86-1.32-43.1-3.93c-13.8-2.94-25.55-7.78-34.92-14.4c-10.39-7.34-18.15-16.93-23.04-28.5
					c-4.39-10.36-6.61-22.46-6.61-35.96V40.77c0-12.9,5.12-24.06,14.42-31.41C220.81,3.15,230.51,0,241.78,0
					c11.53,0,21.36,3.15,29.22,9.36c9.3,7.35,14.42,18.5,14.42,31.41v67.17c0,4.87,0.72,7.45,1.17,8.58c0.21,0.15,0.61,0.4,1.27,0.7
					c1.03,0.48,5.18,2.02,15.6,2.02c11.61,0,15.54-2.07,16.09-2.41c0.49-0.57,1.55-2.93,1.55-8.34V40.77
					c0-12.96,5.09-24.12,14.35-31.44C343.27,3.14,352.99,0,364.36,0c11.2,0,20.88,3.05,28.76,9.06c9.6,7.33,14.88,18.59,14.88,31.71
					v65.68c0,13.96-2.02,25.68-6.18,35.83c-4.76,11.63-13.34,21.62-25.48,29.7l-0.1,0.07c-9.36,6.16-20.2,10.67-32.21,13.41
					C333.06,187.97,320.34,189.24,306.21,189.24z"/>
			</g>
			<g>
				<path d="M495.71,189.24c-22.33,0-40.67-3.1-56.06-9.46l-0.11-0.05c-12.02-5.04-22.08-12.05-29.91-20.83
					c-9.47-10.61-14.27-21.99-14.27-33.81c0-11.1,5.24-21.05,14.75-28c0.47-0.34,0.94-0.67,1.42-0.99
					c-8.2-9.36-12.5-20.99-12.5-33.9c0-13.82,5.38-26.57,15.56-36.89c8.67-8.78,20.6-15.4,35.47-19.67C463.07,1.9,478.26,0,495.18,0
					C508.81,0,521,1.28,531.4,3.79c11.12,2.69,20.35,6.32,28.23,11.1c8.67,5.27,15.12,11.06,19.72,17.72
					c5.43,7.86,8.19,16.18,8.19,24.74c0,8.82-3.42,17.1-9.72,23.77c3.14,2.81,5.93,5.89,8.35,9.22c6.47,8.92,9.75,19.54,9.75,31.57
					c0,14.17-5.26,27.45-15.21,38.4c-8.81,9.69-21.13,17.15-36.64,22.16C530.22,186.96,513.95,189.24,495.71,189.24z"/>
			</g>
			<g>
				<path d="M750.29,189.24c-5.79,0-11.14-0.86-15.9-2.55c-5.16-1.84-9.71-4.51-13.53-7.95c-3.2-2.87-6.2-6.61-9.14-11.39
					c-1.81-2.95-3.4-5.6-4.73-7.88l-0.2-0.35l-2.58-4.82h-49.14l-2.43,4.64c-5.01,9.56-9.31,15.77-13.95,20.16
					c-7.13,6.73-16.86,10.14-28.92,10.14c-9.76,0-18.65-2.68-26.44-7.96c-14.06-9.53-16.16-21.96-16.16-28.52
					c0-5.2,1.12-10.39,3.34-15.43c1.2-2.74,2.96-6.14,5.36-10.37l49.03-88.54c0.96-1.74,5.03-9.15,5.03-9.15
					c2.94-5.34,6.25-9.98,9.86-13.81c4.62-4.89,10.42-8.77,17.26-11.52C663.52,1.32,671.05,0,679.44,0c8.59,0,15.95,1.28,22.52,3.93
					c6.75,2.72,12.48,6.48,17.04,11.2c3.58,3.69,6.66,7.76,9.16,12.08c1.67,2.89,3.71,6.58,6.08,11.01l49.93,87.74
					c6.38,10.92,9.1,18.89,9.1,26.62c0,6.4-2.03,18.58-15.66,28.27C769.78,186.41,760.58,189.24,750.29,189.24z"/>
			</g>
			<g>
				<path d="M963.22,189.24c-10.49,0-20.01-3.13-27.54-9.05c-3.18-2.5-5.87-5.45-8.01-8.77c-3.07,4.08-7.06,7.69-11.91,10.79
					c-7.31,4.66-16.41,7.03-27.06,7.03c-7.9,0-15.06-1.4-21.28-4.17c-6.66-2.96-12.15-7.09-16.3-12.27
					c-0.42-0.52-0.83-1.05-1.23-1.59c-2.13,3.36-4.81,6.35-7.99,8.89c-7.61,6.06-17.03,9.14-27.98,9.14
					c-10.52,0-20.05-3.08-27.56-8.91c-9.19-7.13-14.25-18.05-14.25-30.74V41.52c0-15.31,7.37-27.6,20.22-33.73
					c7.7-3.67,16.86-5.46,28-5.46h12.05c9.7,0,16.8,0.74,22.35,2.31c8.88,2.53,16.08,7.73,20.83,15.05
					c2.6,4.01,5.06,9.27,7.74,16.56l5.39,14.45l5.39-14.44c2.68-7.29,5.14-12.55,7.74-16.56c4.75-7.32,11.95-12.53,20.83-15.05
					c5.55-1.58,12.65-2.31,22.35-2.31h12.05c11.14,0,20.3,1.78,28,5.45c12.86,6.13,20.23,18.43,20.23,33.73v108.07
					c0,12.5-4.96,23.34-13.96,30.51C983.73,186.16,974.27,189.24,963.22,189.24z"/>
			</g>
			<g>
				<path d="M1166.6,189.24c-5.79,0-11.14-0.86-15.9-2.55c-5.16-1.84-9.7-4.51-13.52-7.95c-3.21-2.89-6.21-6.62-9.15-11.4
					c-1.81-2.94-3.4-5.59-4.73-7.88l-0.2-0.35l-2.57-4.81h-49.14l-2.43,4.64c-5.01,9.56-9.31,15.77-13.95,20.16
					c-7.13,6.73-16.86,10.14-28.92,10.14c-9.76,0-18.65-2.68-26.44-7.96c-14.06-9.53-16.16-21.96-16.16-28.53
					c0-5.2,1.12-10.39,3.33-15.42c1.21-2.75,2.96-6.14,5.36-10.38l49.03-88.54c1.1-2.01,5.03-9.16,5.03-9.16
					c2.94-5.34,6.25-9.98,9.86-13.8c4.62-4.89,10.43-8.77,17.27-11.53c6.47-2.61,14-3.93,22.39-3.93c8.59,0,15.95,1.28,22.51,3.92
					c6.75,2.72,12.48,6.49,17.05,11.2c3.58,3.7,6.66,7.76,9.17,12.08c1.65,2.85,3.69,6.55,6.07,11l49.93,87.74
					c6.38,10.92,9.11,18.89,9.11,26.62c0,6.4-2.03,18.58-15.65,28.27C1186.09,186.41,1176.9,189.24,1166.6,189.24z"/>
			</g>
			<g>
				<path d="M1356.49,189.24c-11.46,0-21.25-3.22-29.11-9.58c-9.12-7.38-14.14-18.49-14.14-31.28v-21.93h-35.94v21.93
					c0,13.13-5.31,24.41-14.95,31.76c-7.93,6.04-17.58,9.1-28.69,9.1c-11.46,0-21.25-3.22-29.11-9.58
					c-9.12-7.38-14.14-18.49-14.14-31.28V40.77c0-12.79,5-23.88,14.07-31.23c7.81-6.33,17.63-9.54,29.19-9.54
					c11.2,0,20.88,3.05,28.76,9.06c9.6,7.33,14.88,18.59,14.88,31.71V55.9h35.94V40.77c0-12.9,5.12-24.06,14.42-31.41
					c7.86-6.21,17.56-9.36,28.83-9.36c11.2,0,20.88,3.05,28.76,9.06c9.6,7.33,14.88,18.59,14.88,31.71v107.6
					c0,13.13-5.31,24.41-14.95,31.76C1377.25,186.17,1367.6,189.24,1356.49,189.24z"/>
			</g>
			<g>
				<path d="M1501.85,189.24c-16.36,0-30.86-1.32-43.1-3.93c-13.8-2.94-25.55-7.78-34.92-14.4c-10.39-7.34-18.15-16.93-23.04-28.5
					c-4.39-10.36-6.61-22.46-6.61-35.96V40.77c0-12.9,5.12-24.05,14.42-31.4c7.86-6.22,17.56-9.37,28.83-9.37
					c11.53,0,21.36,3.15,29.22,9.36c9.3,7.35,14.42,18.5,14.42,31.41v67.17c0,4.87,0.72,7.45,1.17,8.58c0.21,0.15,0.61,0.4,1.27,0.7
					c1.03,0.48,5.18,2.02,15.6,2.02c11.61,0,15.54-2.07,16.1-2.41c0.49-0.57,1.55-2.93,1.55-8.34V40.77
					c0-12.96,5.09-24.12,14.35-31.44C1538.91,3.14,1548.63,0,1560,0c11.2,0,20.88,3.05,28.76,9.06c9.6,7.33,14.88,18.58,14.88,31.71
					v65.68c0,13.96-2.02,25.68-6.18,35.83c-4.76,11.63-13.34,21.62-25.48,29.71l-0.1,0.07c-9.36,6.16-20.2,10.67-32.21,13.41
					C1528.7,187.97,1515.98,189.24,1501.85,189.24z"/>
			</g>
			<g>
				<path d="M1644.99,186.91c-13.91,0-24.53-2.88-32.49-8.81c-9.73-7.25-15.08-18.67-15.08-32.14V43.29
					c0-18.63,9.81-28.39,15.65-32.55c7.95-5.65,18.39-8.4,31.92-8.4h62.2c10.07,0,19.05,0.46,26.69,1.38
					c8.95,1.08,17.24,3.23,24.65,6.42c6.71,2.85,12.8,6.57,18.1,11.05c5.92,5,10.57,10.77,13.85,17.15
					c3.59,6.99,5.4,14.48,5.4,22.28c0,6.83-1.37,16.34-7.23,25.82c13.5,12.57,16.27,27.46,16.27,37.53
					c0,13.52-4.98,26.21-14.41,36.68c-8.39,9.34-19.48,16.21-32.95,20.41l-0.32,0.1c-7.32,2.18-15.65,3.71-24.76,4.57
					c-8.29,0.78-17.99,1.18-28.83,1.18H1644.99z"/>
			</g>
		</g>
	</g>
	<g>
		<g>
			<g>
				<path class="st0" d="M168.84,170.24c-6.15,0-11.33-1-15.4-2.97c-4.01-1.94-7.46-4.56-10.25-7.81c-2.34-2.71-4.45-5.21-6.28-7.44
					l-42.95-47.01l-26.06,17.77v25.59c0,7.34-2.52,12.96-7.49,16.71c-4.54,3.42-10.31,5.15-17.15,5.15c-3.95,0-7.8-0.75-11.44-2.23
					c-3.86-1.57-6.93-3.78-9.12-6.58l-0.08-0.1l-0.07-0.11c-1.7-2.42-2.75-5.24-3.11-8.37c-0.29-2.51-0.43-5.96-0.43-10.53V40.77
					c0-7.15,2.36-12.69,7.03-16.46C30.37,20.79,36.17,19,43.25,19c6.94,0,12.74,1.74,17.24,5.17c4.91,3.75,7.4,9.33,7.4,16.6v37.95
					L136.26,28c3.93-2.93,7.23-5.06,10.08-6.5c3.31-1.68,7.42-2.5,12.54-2.5c6.58,0,12.08,1.46,16.35,4.35
					c6.1,4.12,7.38,9.16,7.38,12.67c0,5.77-3.69,11.21-10.96,16.15l-42.31,28.51l50.27,51.24c4.09,4.1,7.12,7.65,9.24,10.84
					c2.47,3.71,3.72,7.48,3.72,11.2c0,3.3-1.26,8.08-7.27,12.08C181.11,168.83,175.58,170.24,168.84,170.24z"/>
			</g>
			<g>
				<path class="st0" d="M306.21,170.24c-15.03,0-28.21-1.18-39.15-3.51c-11.27-2.4-20.66-6.21-27.91-11.34
					c-7.46-5.27-13.02-12.13-16.52-20.39c-3.39-8.01-5.11-17.61-5.11-28.55V40.77c0-7.17,2.42-12.72,7.2-16.5
					c4.42-3.5,10.16-5.27,17.05-5.27c7.15,0,13.02,1.77,17.44,5.27c4.78,3.78,7.2,9.33,7.2,16.5v67.17c0,6.87,1.05,12.59,3.13,17.02
					c1.9,4.06,5.28,7.17,10.34,9.51c5.42,2.51,13.35,3.78,23.57,3.78c13.83,0,23.54-2.46,28.84-7.31c5.18-4.73,7.8-12.28,7.8-22.44
					V40.77c0-7.23,2.4-12.8,7.14-16.54c4.38-3.47,10.14-5.23,17.11-5.23c6.94,0,12.74,1.74,17.24,5.17c4.91,3.75,7.4,9.33,7.4,16.6
					v65.68c0,11.29-1.6,20.92-4.76,28.63c-3.3,8.05-9.5,15.15-18.42,21.09c-7.48,4.92-16.22,8.54-26.02,10.77
					C330.22,169.13,318.92,170.24,306.21,170.24z"/>
			</g>
			<g>
				<path class="st0" d="M495.71,170.24c-19.52,0-35.93-2.7-48.79-8.02c-9.41-3.95-17.17-9.32-23.1-15.97
					c-6.27-7.03-9.45-14.15-9.45-21.17c0-3.45,1.21-8.45,6.96-12.66c4.14-3.02,9.33-4.55,15.46-4.55c5.08,0,9.5,1.22,13.16,3.62
					c3.51,2.31,6.51,5.69,8.91,10.07c2.19,3.9,4.6,7.22,7.12,9.82c2.3,2.37,5.7,4.39,10.12,6.01c4.57,1.68,10.82,2.53,18.57,2.53
					c10.65,0,19.31-1.73,25.75-5.15c8.15-4.32,8.15-8.51,8.15-9.88c0-2.94-1.16-5.1-3.77-7c-3.34-2.43-7.81-4.33-13.29-5.66
					c-6-1.45-14.18-3.03-24.31-4.68c-13.99-2.33-25.9-5.1-35.4-8.25c-9.98-3.3-18.07-7.92-24.05-13.74
					c-6.43-6.26-9.7-14.13-9.7-23.38c0-8.84,3.39-16.76,10.08-23.54c6.35-6.43,15.49-11.39,27.19-14.76
					c11.31-3.25,24.73-4.9,39.88-4.9c12.12,0,22.81,1.1,31.75,3.26c9.06,2.19,16.74,5.18,22.83,8.88
					c6.25,3.8,10.95,7.93,13.96,12.28c3.2,4.62,4.82,9.31,4.82,13.93c0,3.34-1.18,8.28-6.77,12.79c-4.17,3.36-9.34,5.07-15.38,5.07
					c-5.54,0-9.78-1.06-12.97-3.25c-2.79-1.91-5.64-4.83-8.7-8.9l-0.14-0.2c-3.06-4.51-6.75-8.07-10.98-10.56
					c-2.81-1.66-8.74-3.64-21.03-3.64c-9.19,0-16.6,1.4-22.02,4.16c-4.31,2.2-6.5,4.51-6.5,6.86c0,1.35,0.49,2.41,1.58,3.45
					c1.61,1.53,3.97,2.91,7.02,4.09c3.4,1.33,6.89,2.38,10.37,3.12c3.69,0.79,9.89,1.97,18.43,3.51c10.84,1.8,20.86,3.84,29.72,6.03
					c9.1,2.26,16.99,5.05,23.44,8.31c6.84,3.45,12.29,7.93,16.2,13.31c4.07,5.6,6.13,12.47,6.13,20.41c0,9.5-3.46,18.13-10.27,25.63
					c-6.55,7.21-16.11,12.88-28.42,16.86C526.27,168.27,511.96,170.24,495.71,170.24z"/>
			</g>
			<g>
				<path class="st0" d="M750.29,170.24c-3.61,0-6.82-0.49-9.53-1.45c-2.8-1-5.21-2.4-7.17-4.16c-1.85-1.66-3.71-4.03-5.69-7.24
					c-1.72-2.8-3.22-5.3-4.46-7.43l-7.83-14.65h-72.03l-7.76,14.83c-3.88,7.4-7.2,12.35-10.16,15.15
					c-3.53,3.33-8.72,4.95-15.87,4.95c-5.89,0-11.19-1.58-15.77-4.68c-6.47-4.38-7.82-9.38-7.82-12.8c0-2.55,0.58-5.17,1.73-7.79
					c0.95-2.17,2.44-5.03,4.55-8.75l49.08-88.65c0.95-1.73,5.03-9.16,5.03-9.16c2.16-3.93,4.52-7.26,7.03-9.92
					c2.72-2.88,6.26-5.21,10.54-6.94c4.2-1.69,9.35-2.55,15.29-2.55c6.03,0,11.21,0.86,15.42,2.55c4.26,1.72,7.79,4,10.5,6.79
					c2.5,2.58,4.64,5.4,6.37,8.38c1.58,2.73,3.56,6.32,5.88,10.67l50.12,88.08c4.46,7.61,6.55,13.06,6.55,17.1
					c0,4.87-2.58,9.17-7.67,12.79C762.05,168.59,756.56,170.24,750.29,170.24z M699.93,104.52l-20.71-40.34l-20.34,40.34H699.93z"/>
			</g>
			<g>
				<path class="st0" d="M963.22,170.24c-6.28,0-11.59-1.68-15.79-4.98c-4.57-3.59-6.88-8.86-6.88-15.67V84.44l-21.06,59.55
					c-2.09,5.87-3.76,10.1-5.11,12.93c-1.67,3.48-4.64,6.6-8.83,9.28c-4.21,2.68-9.87,4.05-16.83,4.05c-5.22,0-9.78-0.85-13.55-2.53
					c-3.87-1.72-6.96-4.01-9.2-6.8c-2.07-2.57-3.72-5.46-4.9-8.57c-1.01-2.65-2.04-5.42-3.1-8.3l-21.08-59.6v65.15
					c0,6.79-2.29,12.06-6.8,15.65c-4.16,3.32-9.6,5-16.15,5c-6.35,0-11.7-1.65-15.9-4.92c-4.58-3.56-6.91-8.85-6.91-15.73V41.52
					c0-10,5.11-14.54,9.4-16.58c5.09-2.43,11.58-3.61,19.83-3.61h12.05c7.78,0,13.39,0.52,17.15,1.59
					c4.46,1.27,7.85,3.66,10.09,7.12c1.79,2.76,3.71,6.95,5.87,12.83l23.2,62.22l23.21-62.25c2.15-5.84,4.07-10.04,5.86-12.81
					c2.24-3.46,5.64-5.85,10.09-7.12c3.76-1.07,9.37-1.59,17.15-1.59h12.05c8.25,0,14.73,1.18,19.83,3.61
					c4.29,2.04,9.4,6.58,9.4,16.58v108.07c0,6.79-2.29,12.06-6.8,15.65C975.34,168.55,969.86,170.24,963.22,170.24z"/>
			</g>
			<g>
				<path class="st0" d="M1166.6,170.24c-3.61,0-6.82-0.49-9.53-1.45c-2.8-1-5.21-2.4-7.17-4.16c-1.85-1.67-3.72-4.04-5.69-7.24
					c-1.72-2.8-3.22-5.3-4.46-7.43l-7.83-14.65h-72.03l-7.76,14.83c-3.88,7.4-7.2,12.36-10.16,15.15
					c-3.53,3.33-8.72,4.95-15.87,4.95c-5.89,0-11.19-1.58-15.77-4.68c-6.47-4.38-7.82-9.38-7.82-12.8c0-2.55,0.58-5.17,1.73-7.79
					c0.95-2.17,2.44-5.03,4.55-8.75l49.08-88.65c1.09-1.99,5.03-9.16,5.03-9.16c2.16-3.93,4.53-7.26,7.03-9.92
					c2.72-2.88,6.26-5.21,10.54-6.94c4.2-1.69,9.35-2.55,15.29-2.55c6.03,0,11.21,0.86,15.42,2.55c4.26,1.72,7.79,4,10.5,6.79
					c2.5,2.58,4.64,5.4,6.37,8.38c1.57,2.71,3.54,6.3,5.88,10.66l50.12,88.08c4.46,7.61,6.55,13.06,6.55,17.1
					c0,4.86-2.58,9.17-7.67,12.79C1178.36,168.59,1172.87,170.24,1166.6,170.24z M1116.25,104.52l-20.71-40.34l-20.34,40.34H1116.25
					z"/>
			</g>
			<g>
				<path class="st1" d="M1356.49,170.24c-7,0-12.77-1.8-17.16-5.35c-4.71-3.81-7.09-9.36-7.09-16.51v-40.93h-73.94v40.93
					c0,7.27-2.51,12.87-7.47,16.65c-4.54,3.46-10.32,5.22-17.17,5.22c-7,0-12.77-1.8-17.16-5.35c-4.71-3.81-7.09-9.36-7.09-16.51
					V40.77c0-7.15,2.36-12.69,7.03-16.46c4.34-3.52,10.14-5.31,17.23-5.31c6.94,0,12.74,1.74,17.24,5.17
					c4.91,3.75,7.4,9.33,7.4,16.6V74.9h73.94V40.77c0-7.17,2.42-12.72,7.2-16.5c4.42-3.5,10.16-5.27,17.05-5.27
					c6.94,0,12.74,1.74,17.24,5.17c4.91,3.75,7.4,9.33,7.4,16.6v107.6c0,7.27-2.51,12.87-7.47,16.65
					C1369.12,168.48,1363.34,170.24,1356.49,170.24z"/>
			</g>
			<g>
				<path class="st1" d="M1501.85,170.24c-15.03,0-28.21-1.18-39.15-3.51c-11.27-2.4-20.66-6.21-27.91-11.34
					c-7.46-5.27-13.02-12.13-16.52-20.39c-3.39-8.01-5.11-17.61-5.11-28.55V40.77c0-7.17,2.42-12.72,7.2-16.5
					c4.42-3.5,10.16-5.27,17.05-5.27c7.15,0,13.02,1.77,17.44,5.27c4.78,3.78,7.2,9.33,7.2,16.5v67.17c0,6.87,1.05,12.59,3.13,17.02
					c1.9,4.06,5.28,7.17,10.34,9.51c5.42,2.51,13.35,3.78,23.57,3.78c13.83,0,23.54-2.46,28.84-7.31c5.18-4.73,7.8-12.28,7.8-22.44
					V40.77c0-7.23,2.4-12.8,7.14-16.54c4.38-3.47,10.14-5.23,17.11-5.23c6.94,0,12.74,1.74,17.24,5.17c4.91,3.75,7.4,9.33,7.4,16.6
					v65.68c0,11.28-1.6,20.92-4.76,28.63c-3.3,8.05-9.5,15.15-18.42,21.09c-7.48,4.92-16.22,8.54-26.02,10.77
					C1525.86,169.13,1514.56,170.24,1501.85,170.24z"/>
			</g>
			<g>
				<path class="st1" d="M1644.99,167.91c-9.67,0-16.58-1.65-21.13-5.04c-4.94-3.68-7.45-9.37-7.45-16.91V43.29
					c0-7.71,2.58-13.45,7.67-17.07c4.62-3.29,11.46-4.89,20.91-4.89h62.2c9.31,0,17.53,0.42,24.43,1.25
					c7.17,0.86,13.71,2.55,19.46,5.03c4.95,2.1,9.43,4.83,13.29,8.08c3.98,3.37,7.08,7.18,9.21,11.32c2.19,4.27,3.3,8.85,3.3,13.6
					c0,12.31-6.42,22.07-19.13,29.13c18.71,7.08,28.17,18.55,28.17,34.22c0,8.88-3.21,16.95-9.53,23.98
					c-6.08,6.77-14.32,11.81-24.49,14.98c-6.2,1.84-13.31,3.15-21.19,3.89c-7.71,0.73-16.81,1.09-27.05,1.09H1644.99z
					 M1702.08,137.13c12.28,0,21.46-1.52,27.28-4.5c4.94-2.53,7.14-5.84,7.14-10.71c0-4.93-2.25-8.15-7.29-10.45
					c-6.12-2.79-15.69-4.21-28.44-4.21h-35.46v29.87H1702.08z M1695.93,77.41c9.24,0,16.39-0.61,21.26-1.81
					c4.18-1.03,7.23-2.87,9.34-5.63l0.14-0.18c1.44-1.72,2.11-3.48,2.11-5.55c0-4.71-2.07-7.4-6.91-8.99
					c-6.36-2.09-16.45-3.15-30-3.15h-26.56v25.31H1695.93z"/>
			</g>
		</g>
	</g>
</g>
</svg>
